<svg version="1" xmlns="http://www.w3.org/2000/svg" width="426.667" height="426.667" viewBox="0 0 320.000000 320.000000"><path d="M119 1.6C103.6 4.4 85.3 12 72 21c-7.6 5.2-21.2 18-26.9 25.4-6.1 7.8-13.8 21.1-16.3 27.8-2 5.7-2.4 6.1-8.5 9.1-8.1 3.9-15.1 11.4-18.1 19.2-2.6 6.7-2.9 17.2-.8 23.3 1.3 3.5 1.3 4.7 0 8.8C.4 138 0 145 0 160.2c0 23.1 1 28.5 6.9 35.8 2.7 3.3 2.9 4.2 3.3 15 .6 13.5 2.9 21.3 8.9 30.6 4.3 6.6 13.3 15.8 18.6 18.9 2.6 1.5 3.6 3.1 5.3 8.6 2.6 8.8 10.6 20.7 17.8 26.5 13.1 10.7 26.4 14.9 43.8 14.1 6.1-.4 11.5-.2 12 .3 2 1.9 13.3 6.9 19.1 8.4 7.8 2 20.8 2 28.6 0 5.8-1.5 17.1-6.5 19.1-8.4.5-.5 5.9-.7 12-.3 17.4.8 30.7-3.4 43.8-14.1 7.1-5.8 15.2-17.7 17.8-26.4 1.8-6 2.5-7 6.5-9.5 6.9-4.4 15.9-14.8 19.9-22.9 4.8-9.8 6.6-17.5 6.6-28 0-8.5.1-8.9 3.5-13.3 5.7-7.5 6.5-12.1 6.5-35.5 0-14.9-.4-22-1.4-25.3-1.2-4.1-1.2-5.3.1-9.5 2-6.4 1.3-18.3-1.4-24.4-2.4-5.3-9-12.8-13.9-15.9-4.2-2.6-4.5-4.9-.6-4.9 4.6 0 13.3-2.9 18.5-6.2 6.1-3.9 12-10.6 15.4-17.7 2.5-5 2.8-6.7 2.8-16.1 0-9.7-.2-11-3.1-17-3.9-8.2-10.9-15.2-19.4-19.3L290.5.5l-82-.2C142.6.2 125 .5 119 1.6zm166.3 19.5c4.4 1.2 10.2 5.9 12.4 10.3 2 3.7 2.1 13.1.3 16.6-3.7 7.3-10.1 11.3-18 11.3-6.1 0-10.2-1.7-14.1-6-3.6-3.8-4.6-5.9-5.4-11.6-.6-4-.3-5.6 1.9-10.1 4.6-9.3 13.1-13.3 22.9-10.5zM268.9 101c7.7 2.2 12.2 10.2 10.1 17.9-1.1 4.3-6.9 10.1-10 10.1-3.5 0-3 1.7 1 2.9 2.1.6 5 2.5 6.4 4.2l2.6 3.1v20.1c0 18.3-.2 20.5-2 23.4-1.9 3.2-6.6 6.3-9.4 6.3-2.5 0-2.6 1.6-.4 7.6 3 8.5 3 19-.2 27.3-3.3 8.9-11.7 17.8-20.4 21.7-6.4 2.8-6.5 3-7.1 7.4-2.3 17-11.4 28.9-26.2 34.2-8 2.8-18.9 2.7-26.6-.2l-5.8-2.2-4.4 4c-15.3 14.2-37.7 14.2-53.1 0l-4.4-4-4.2 1.7c-24.2 9.6-50-5.3-54-31.2l-1.1-6.8-5.4-2.4c-11.5-5.1-21-17.2-23.2-29.6-1.2-6.5-.4-13.8 2.3-21.4 1.7-4.7 1.4-6.1-1.2-6.1-2.9 0-8-3.8-9.8-7.2-1.4-2.5-1.9-6.5-2.2-16.6-.8-24.4 1.1-30.7 9.8-33.3 3.9-1.2 4.5-2.9 1.2-2.9-3.2 0-9.1-5.9-10.2-10.1-2-7.4 2.4-15.7 9.6-17.9 4.1-1.2 234-1.3 238.3 0z"/><path d="M84.4 134.4l-4.4 4.3v15.4c0 13.6.2 15.8 2 18.7 6.1 10 20.4 9.6 26.4-.8 2.3-3.9 3.4-17.8 2.1-27.7-.6-5-1.3-6.3-5-10-4.1-4.1-4.5-4.3-10.5-4.3-6.1 0-6.4.1-10.6 4.4zM196 132.6c-5.4 4.6-6 6.9-6 22.6 0 12.5.3 14.7 2 17.6 5.9 9.6 20.1 9.6 26 0 1.8-2.9 2-5.1 2-18.7v-15.4l-4.4-4.3c-4.2-4.2-4.6-4.4-10.4-4.4-5.1 0-6.6.4-9.2 2.6zM130.5 193.7c2 10.8 13.5 17.7 24.5 14.9 7.4-1.9 13.2-7.9 14.5-14.9l.7-3.7h-40.4l.7 3.7zM116.5 220.9c-6.2 2.6-8 10.8-3.5 15.6 7 7.4 22.7 12.9 37 12.9s30-5.5 37-12.9c3.3-3.5 3.4-9.4.1-12.9-4.1-4.3-6.7-4.2-17.7 1.1-9.7 4.7-10.1 4.8-19.4 4.8-9.3 0-9.7-.1-19.4-4.8-10.2-4.9-10.9-5.1-14.1-3.8z"/></svg>